<?xml version="1.0" encoding="iso-8859-1"?>
<!-- Generator: Adobe Illustrator 19.0.0, SVG Export Plug-In . SVG Version: 6.00 Build 0)  -->
<svg version="1.1" id="Layer_1" xmlns="http://www.w3.org/2000/svg" xmlns:xlink="http://www.w3.org/1999/xlink" x="0px" y="0px"
	 viewBox="0 0 423.662 423.662" style="enable-background:new 0 0 423.662 423.662;" xml:space="preserve">
<g>
	<g>
		<path style="fill:#AFDAF9;" d="M289.98,156.421c0,1.996-0.044,3.992-0.149,5.958c-1.207,27.808-10.888,53.427-26.557,74.324
			c-2.368,3.188-4.9,6.271-7.567,9.235c-18.007,20.078-42.003,34.689-69.185,41.019c-9.517,2.234-19.423,3.441-29.61,3.515h0.998
			c-0.328,0.015-0.655,0.015-0.998,0.015h-0.998c-0.328,0-0.67,0-0.998-0.015h0.998c-10.173-0.075-20.078-1.281-29.595-3.515
			c-27.183-6.33-51.178-20.927-69.2-41.005c-2.651-2.964-5.183-6.047-7.567-9.249c-15.654-20.897-25.351-46.516-26.542-74.324
			c-0.104-1.966-0.149-3.962-0.149-5.958s0.044-3.992,0.149-5.958c1.192-27.808,10.888-53.427,26.542-74.324
			c2.383-3.203,4.915-6.286,7.567-9.25c18.022-20.078,42.018-34.675,69.2-41.005c9.517-2.234,19.423-3.44,29.595-3.515h-0.998
			c0.328-0.015,0.67-0.015,0.998-0.015c0.179,0,0.343,0,0.507,0.015c0.164-0.015,0.328-0.015,0.492-0.015
			c0.343,0,0.67,0,0.998,0.015h-0.998c10.188,0.075,20.093,1.281,29.61,3.515c27.183,6.33,51.178,20.942,69.185,41.02l7.567,9.235
			c15.669,20.897,25.351,46.516,26.557,74.324C289.936,152.429,289.98,154.425,289.98,156.421z"/>
		<path style="fill:#97C9E8;" d="M289.831,162.379c0.104-1.966,0.149-3.962,0.149-5.958s-0.044-3.992-0.149-5.958h-50.597
			c-0.507-20.018-3.515-39.62-8.818-57.344c12.288-4.558,23.236-10.203,32.619-16.801l0.238-0.179l-7.567-9.235
			c-8.356,5.809-18.112,10.799-29.074,14.91c-9.637-25.946-23.668-45.25-40.111-55.929c-9.517-2.234-19.423-3.44-29.61-3.515h0.998
			c-0.328-0.015-0.655-0.015-0.998-0.015c-0.164,0-0.328,0-0.492,0.015c-0.164-0.015-0.328-0.015-0.507-0.015
			c-0.328,0-0.67,0-0.998,0.015h0.998c-10.173,0.075-20.078,1.281-29.595,3.515c-16.442,10.665-30.488,29.983-40.11,55.929
			c-10.992-4.111-20.748-9.115-29.089-14.924c-2.651,2.964-5.183,6.047-7.567,9.25l0.238,0.179
			c9.384,6.598,20.331,12.243,32.634,16.801c-5.303,17.724-8.326,37.326-8.818,57.344H23.009c-0.104,1.966-0.149,3.962-0.149,5.958
			c0,1.996,0.044,3.992,0.149,5.958h50.597c0.492,20.003,3.515,39.605,8.818,57.344c-12.303,4.558-23.251,10.203-32.634,16.801
			l-0.238,0.179c2.383,3.203,4.915,6.286,7.567,9.249c8.341-5.809,18.097-10.813,29.089-14.924
			c9.622,25.947,23.668,45.265,40.111,55.929c9.517,2.234,19.423,3.441,29.595,3.515h-0.998c0.328,0.015,0.67,0.015,0.998,0.015
			h0.998c0.343,0,0.67,0,0.998-0.015h-0.998c10.188-0.075,20.093-1.281,29.61-3.515c16.444-10.664,30.474-29.983,40.111-55.929
			c10.977,4.111,20.733,9.101,29.074,14.91c2.666-2.964,5.198-6.047,7.567-9.235l-0.238-0.179
			c-9.369-6.598-20.331-12.229-32.619-16.801c5.303-17.74,8.311-37.341,8.818-57.344h50.596V162.379z M150.954,284.053
			c-21.404-3.307-41.258-24.367-53.427-56.778c16.503-4.885,34.749-7.671,53.427-8.162V284.053z M150.954,207.197
			c-19.959,0.507-39.501,3.485-57.196,8.773c-4.915-16.563-7.715-34.853-8.207-53.591h65.402L150.954,207.197L150.954,207.197z
			 M150.954,150.464H85.552c0.492-18.738,3.292-37.043,8.207-53.591c17.695,5.273,37.237,8.266,57.196,8.773v44.818H150.954z
			 M150.954,93.73c-18.678-0.491-36.909-3.277-53.427-8.162c12.154-32.396,32.008-53.471,53.427-56.793V93.73z M162.87,28.953
			c21.031,3.813,40.469,24.71,52.444,56.614c-16.22,4.796-34.109,7.567-52.444,8.132V28.953z M162.87,283.89v-64.762
			c18.335,0.566,36.223,3.351,52.444,8.147C203.323,259.179,183.901,280.076,162.87,283.89z M219.067,215.97
			c-17.397-5.198-36.581-8.177-56.197-8.743V162.38h64.419C226.797,181.117,223.982,199.407,219.067,215.97z M162.87,150.464
			v-44.848c19.616-0.581,38.8-3.56,56.197-8.743c4.915,16.548,7.73,34.853,8.222,53.591H162.87z"/>
	</g>
	<path style="fill:#E6E6E6;" d="M274.255,259.401l21.51,21.51c-3.21,1.39-6.22,3.39-8.84,6.01s-4.63,5.63-6.01,8.84l-21.51-21.5
		c2.62-2.29,5.18-4.69,7.67-7.18C269.575,264.581,271.965,262.021,274.255,259.401z"/>
	<path style="fill:#666666;" d="M415.315,415.321c-11.13,11.12-29.17,11.12-40.3,0l-88.09-88.09c-8.51-8.51-10.51-21.06-6.01-31.47
		c1.38-3.21,3.39-6.22,6.01-8.84s5.63-4.62,8.84-6.01c3.6-1.56,7.45-2.34,11.31-2.34c7.29,0,14.58,2.79,20.15,8.35l88.09,88.09
		C426.445,386.141,426.445,404.191,415.315,415.321z"/>
	<path style="opacity:0.51;fill:#F2F2F2;enable-background:new    ;" d="M266.895,156.421c0,4.14-3.36,7.5-7.5,7.5
		c-4.15,0-7.5-3.36-7.5-7.5c0-31.76-15.74-61.36-42.1-79.17c-3.43-2.32-4.34-6.98-2.02-10.41c2.32-3.43,6.98-4.34,10.42-2.02
		C248.685,85.421,266.895,119.671,266.895,156.421z"/>
	<path style="opacity:0.51;fill:#F2F2F2;enable-background:new    ;" d="M183.295,49.251c4.02,1,6.47,5.07,5.46,9.09
		c-0.85,3.41-3.91,5.68-7.27,5.68c-0.6,0-1.21-0.07-1.82-0.22c-7.56-1.89-15.38-2.85-23.24-2.85c-4.15,0-7.5-3.36-7.5-7.5
		s3.35-7.5,7.5-7.5C165.515,45.951,174.555,47.061,183.295,49.251z"/>
	<path style="fill:#666666;" d="M267.075,45.761c-50.58-50.58-127.47-59.23-187.04-25.94c-12.29,6.87-23.84,15.51-34.27,25.94
		c-61.02,61.02-61.02,160.3,0,221.32c58.52,58.52,152.24,60.91,213.64,7.18c2.62-2.29,5.18-4.69,7.67-7.18
		c2.5-2.5,4.89-5.06,7.18-7.68c5.71-6.53,10.79-13.42,15.23-20.59C326.855,178.481,319.375,98.061,267.075,45.761z M275.325,217.171
		c-4.3,8.4-9.46,16.28-15.38,23.53c-24.47,30.04-61.76,49.21-103.52,49.21c-19.52,0-38.06-4.19-54.77-11.72
		c-23.14-10.41-42.77-27.23-56.64-48.2c-13.96-21.09-22.09-46.38-22.09-73.57c0-43.9,21.19-82.85,53.9-107.17
		c22.23-16.54,49.77-26.32,79.6-26.32c73.72,0,133.49,59.76,133.49,133.49C289.915,178.301,284.655,198.951,275.325,217.171z"/>
	<path style="opacity:0.56;fill:#808080;enable-background:new    ;" d="M415.315,415.321c-11.13,11.12-29.17,11.12-40.3,0
		l-47.79-128.4l88.09,88.09C426.445,386.141,426.445,404.191,415.315,415.321z"/>
	<path style="opacity:0.23;fill:#F2F2F2;enable-background:new    ;" d="M261.44,240.701c-24.47,30.04-61.76,49.21-103.52,49.21
		c-19.52,0-38.06-4.19-54.77-11.72c-23.14-10.41-42.77-27.23-56.64-48.2c-13.96-21.09-22.09-46.38-22.09-73.57
		c0-43.9,21.19-82.85,53.9-107.17c-0.06,1.85-0.09,3.7-0.09,5.56C78.23,156.581,160,239.251,261.44,240.701z"/>
</g>
<g>
</g>
<g>
</g>
<g>
</g>
<g>
</g>
<g>
</g>
<g>
</g>
<g>
</g>
<g>
</g>
<g>
</g>
<g>
</g>
<g>
</g>
<g>
</g>
<g>
</g>
<g>
</g>
<g>
</g>
</svg>
